<svg xmlns="http://www.w3.org/2000/svg" xmlns:xlink="http://www.w3.org/1999/xlink" width="142.55" height="255.22" viewBox="0 0 142.55 255.22">
  <defs>
    <clipPath id="clip-iPhone_X_XS_11_Pro_1">
      <rect width="142.55" height="255.22"/>
    </clipPath>
  </defs>
  <g id="iPhone_X_XS_11_Pro_1" data-name="iPhone X/XS/11 Pro – 1" clip-path="url(#clip-iPhone_X_XS_11_Pro_1)">
    <g id="Group_71" data-name="Group 71" transform="translate(-137 -120.554)">
      <g id="Group_40" data-name="Group 40">
        <path id="Path_353" data-name="Path 353" d="M139.1,68.2h0a71.136,71.136,0,0,1,70.077,58.983h.659a71.771,71.771,0,0,0-141.473,0h.658A71.138,71.138,0,0,1,139.1,68.2Z" transform="translate(69.179 53)" fill="#fff"/>
        <path id="Path_354" data-name="Path 354" d="M139.1,470.069h0a71.139,71.139,0,0,1-70.078-58.983h-.658a71.771,71.771,0,0,0,141.473,0h-.659A71.137,71.137,0,0,1,139.1,470.069Z" transform="translate(69.179 -94.935)" fill="#fff"/>
        <path id="Path_355" data-name="Path 355" d="M139.1,68.2h0a71.136,71.136,0,0,1,70.077,58.983h.659a71.771,71.771,0,0,0-141.473,0h.658A71.138,71.138,0,0,1,139.1,68.2Z" transform="translate(69.179 53)" fill="#fff"/>
        <path id="Path_356" data-name="Path 356" d="M200.553,336.6a.924.924,0,0,1-.925-.924,9.568,9.568,0,0,0-9.557-9.557H137.11a9.568,9.568,0,0,0-9.557,9.557.924.924,0,0,1-1.849,0,11.419,11.419,0,0,1,11.406-11.406h52.962a11.419,11.419,0,0,1,11.407,11.406A.924.924,0,0,1,200.553,336.6Z" transform="translate(44.485 -57.549)" fill="#fff"/>
        <path id="Path_357" data-name="Path 357" d="M190.767,418.711H137.805a11.43,11.43,0,0,1-10.4-6.725.924.924,0,1,1,1.685-.76,9.578,9.578,0,0,0,8.718,5.636h52.962a9.547,9.547,0,0,0,8.808-5.838.925.925,0,0,1,1.7.72A11.394,11.394,0,0,1,190.767,418.711Z" transform="translate(43.789 -94.665)" fill="#fff"/>
        <path id="Path_358" data-name="Path 358" d="M190.358,365h-21.71a9.227,9.227,0,0,1-9.216-9.216v-6.426a.924.924,0,0,1,.925-.925h8.087a.924.924,0,1,1,0,1.849h-7.162v5.5a7.375,7.375,0,0,0,7.367,7.367h21.71a7.375,7.375,0,0,0,7.368-7.367.924.924,0,0,1,1.849,0A9.227,9.227,0,0,1,190.358,365Z" transform="translate(29.96 -67.954)" fill="#fff"/>
        <path id="Path_359" data-name="Path 359" d="M193.986,403.13a.925.925,0,0,1-.925-.925v-27a.925.925,0,1,1,1.849,0v27A.925.925,0,0,1,193.986,403.13Z" transform="translate(15.479 -79.085)" fill="#fff"/>
        <path id="Path_360" data-name="Path 360" d="M198.651,400.084H160.357a.925.925,0,0,1,0-1.849h38.295a.925.925,0,0,1,0,1.849Z" transform="translate(29.96 -89.401)" fill="#fff"/>
        <path id="Path_361" data-name="Path 361" d="M160.307,228.545a22.726,22.726,0,0,1-22.7-22.7V160.464a.925.925,0,0,1,1.849,0v45.382a20.874,20.874,0,0,0,20.851,20.85.925.925,0,0,1,0,1.849Z" transform="translate(39.359 13.388)" fill="#fff"/>
        <path id="Path_362" data-name="Path 362" d="M215.056,187.5a3.06,3.06,0,1,1-3.06,3.061,3.065,3.065,0,0,1,3.06-3.061m0-1.849a4.909,4.909,0,1,0,4.909,4.91A4.909,4.909,0,0,0,215.056,185.648Z" transform="translate(8.121 2.145)" fill="#fff"/>
        <path id="Path_363" data-name="Path 363" d="M186.654,245.086h-9.877a.924.924,0,0,1-.925-.925v-83.7a.924.924,0,0,1,.925-.924h15.814a22.724,22.724,0,0,1,22.7,22.7V206.5a22.725,22.725,0,0,1-22.7,22.7.924.924,0,1,1,0-1.849,20.874,20.874,0,0,0,20.851-20.85V182.238a20.874,20.874,0,0,0-20.851-20.85H177.7v81.848h8.953a.925.925,0,1,1,0,1.849Z" transform="translate(22.889 13.388)" fill="#fff"/>
        <path id="Path_364" data-name="Path 364" d="M253.37,204.394a.924.924,0,0,1-.925-.924,9.568,9.568,0,0,0-9.557-9.557.924.924,0,1,1,0-1.849,11.419,11.419,0,0,1,11.406,11.406A.924.924,0,0,1,253.37,204.394Z" transform="translate(-5.58 -0.618)" fill="#fff"/>
        <path id="Path_365" data-name="Path 365" d="M144.363,184.415a23.518,23.518,0,0,1-23.491-23.492.924.924,0,1,1,1.849,0,21.666,21.666,0,0,0,21.642,21.642.925.925,0,1,1,0,1.849Z" transform="translate(46.565 13.19)" fill="#fff"/>
        <path id="Path_366" data-name="Path 366" d="M152.931,106.44l-3.251,1.419,1.41,3.229-1.245.544-3.227-7.393,1.245-.544,1.383,3.169,3.251-1.419-1.383-3.169,1.245-.544,3.227,7.393-1.245.544Z" transform="translate(35.479 38.281)" fill="#fff"/>
        <path id="Path_367" data-name="Path 367" d="M168.359,101.838a12.2,12.2,0,0,1-.269-1.864,2.088,2.088,0,0,1,.149-.812,2.921,2.921,0,0,1,.835-1.177,3.335,3.335,0,0,1,1.645-.783,3.4,3.4,0,0,1,1.836.1,2.838,2.838,0,0,1,1.192.782,1.749,1.749,0,0,1,.455.695,22.022,22.022,0,0,1,.717,3.682,1.759,1.759,0,0,1-.158.826,2.761,2.761,0,0,1-.814,1.162,3.463,3.463,0,0,1-1.661.8,3.414,3.414,0,0,1-1.82-.118,2.859,2.859,0,0,1-1.214-.767c-.087-.107-.168-.209-.241-.308a2.049,2.049,0,0,1-.2-.4A12.228,12.228,0,0,1,168.359,101.838Zm1.34-.261a8.521,8.521,0,0,0,.4,1.562,1.3,1.3,0,0,0,.474.6,1.586,1.586,0,0,0,.633.288,1.738,1.738,0,0,0,.844.022,1.828,1.828,0,0,0,.791-.34,1.471,1.471,0,0,0,.454-.5,1.371,1.371,0,0,0,.226-.737,9.084,9.084,0,0,0-.218-1.6,9.209,9.209,0,0,0-.4-1.573,1.357,1.357,0,0,0-.484-.588,1.566,1.566,0,0,0-.61-.3,2.155,2.155,0,0,0-.859-.007,2.052,2.052,0,0,0-.776.326,1.684,1.684,0,0,0-.475.516,1.285,1.285,0,0,0-.216.724A8.727,8.727,0,0,0,169.7,101.577Z" transform="translate(26.232 40.266)" fill="#fff"/>
        <path id="Path_368" data-name="Path 368" d="M188.772,95.4l1.359.029-.111,5.2a1.577,1.577,0,0,0,.5,1.267,1.862,1.862,0,0,0,1.287.481,1.91,1.91,0,0,0,1.319-.425,1.6,1.6,0,0,0,.543-1.245l.111-5.2,1.358.029-.114,5.332a2.567,2.567,0,0,1-.958,2,3.663,3.663,0,0,1-4.517-.1,2.5,2.5,0,0,1-.892-2.039Z" transform="translate(17.375 41.007)" fill="#fff"/>
        <path id="Path_369" data-name="Path 369" d="M210.344,104.794q1.7.381,1.981-.686.219-.874-.888-1.324-.51-.189-1.119-.418a3.068,3.068,0,0,1-1.535-1.154,2.024,2.024,0,0,1-.26-1.6,2.1,2.1,0,0,1,1.152-1.479A3.262,3.262,0,0,1,211.913,98a5.433,5.433,0,0,1,2.638,1.482l-.968.806a4.435,4.435,0,0,0-2.017-1.114,1.826,1.826,0,0,0-1.082.034,1.011,1.011,0,0,0-.638.747.853.853,0,0,0,.147.684,1.818,1.818,0,0,0,.848.61c.231.092.547.211.952.356a2.916,2.916,0,0,1,1.626,1.22,2.155,2.155,0,0,1,.233,1.6q-.6,2.235-3.6,1.558a5.439,5.439,0,0,1-3.077-1.865l1.079-.689A4.22,4.22,0,0,0,210.344,104.794Z" transform="translate(9.488 39.945)" fill="#fff"/>
        <path id="Path_370" data-name="Path 370" d="M228.445,103.06l5.188,2.417-.488,1.048-3.956-1.844-.973,2.086,3.377,1.574-.458.983-3.377-1.574-1,2.146,3.956,1.844-.489,1.048-5.188-2.417Z" transform="translate(1.708 37.71)" fill="#fff"/>
        <path id="Path_371" data-name="Path 371" d="M153.07,471.718l-3.259-1.4-1.39,3.238-1.248-.535,3.182-7.412,1.248.536-1.364,3.177,3.259,1.4,1.364-3.177,1.249.536-3.182,7.412-1.249-.536Z" transform="translate(35.24 -118.415)" fill="#fff"/>
        <path id="Path_372" data-name="Path 372" d="M168.87,476.568a12.037,12.037,0,0,1,.441-1.831,2.091,2.091,0,0,1,.438-.7,2.936,2.936,0,0,1,1.213-.783,3.332,3.332,0,0,1,1.817-.118,3.4,3.4,0,0,1,1.668.777,2.847,2.847,0,0,1,.818,1.168,1.74,1.74,0,0,1,.165.814,22.14,22.14,0,0,1-.7,3.686,1.74,1.74,0,0,1-.453.708,2.755,2.755,0,0,1-1.185.778,3.469,3.469,0,0,1-1.839.125,3.407,3.407,0,0,1-1.647-.785,2.858,2.858,0,0,1-.844-1.162c-.041-.132-.079-.257-.11-.375a2.116,2.116,0,0,1-.04-.447A12.171,12.171,0,0,1,168.87,476.568Zm1.341.253a8.527,8.527,0,0,0-.2,1.6,1.283,1.283,0,0,0,.217.734,1.579,1.579,0,0,0,.481.5,1.745,1.745,0,0,0,.775.333,1.836,1.836,0,0,0,.862-.023,1.48,1.48,0,0,0,.606-.3,1.362,1.362,0,0,0,.483-.6,9.082,9.082,0,0,0,.39-1.565,9.363,9.363,0,0,0,.211-1.61,1.366,1.366,0,0,0-.232-.725,1.6,1.6,0,0,0-.454-.508,2.164,2.164,0,0,0-.8-.325,2.056,2.056,0,0,0-.842.015,1.686,1.686,0,0,0-.633.3,1.287,1.287,0,0,0-.469.593A8.724,8.724,0,0,0,170.211,476.821Z" transform="translate(26.007 -121.625)" fill="#fff"/>
        <path id="Path_373" data-name="Path 373" d="M189.859,475.888l-2.453.04-.018-1.09,6.269-.1.018,1.09-2.452.039.113,6.976-1.365.022Z" transform="translate(17.922 -122.345)" fill="#fff"/>
        <path id="Path_374" data-name="Path 374" d="M205.4,473.095,211,471.952l.231,1.133-4.277.871.46,2.255,3.651-.744.216,1.063-3.65.744.473,2.32,4.277-.871.231,1.133L207.007,481Z" transform="translate(10.167 -121.146)" fill="#fff"/>
        <path id="Path_375" data-name="Path 375" d="M222.3,469.238l1.25-.532,2.707,6.358,4.016-1.709.453,1.064-5.266,2.241Z" transform="translate(2.886 -119.748)" fill="#fff"/>
        <g id="Group_39" data-name="Group 39">
          <path id="Path_376" data-name="Path 376" d="M85.316,281.17l6.136,6.136-6.038,6.038-6.136-6.136,6.038-6.038m0-.455-6.493,6.493,6.59,6.59,6.493-6.492Z" transform="translate(64.673 -38.793)" fill="#fff"/>
          <path id="Path_377" data-name="Path 377" d="M85.107,281.163l6.035,6.035-5.837,5.837L79.372,287.1l5.936-5.937a.142.142,0,0,0-.2-.2L79.07,287a.143.143,0,0,0,0,.2l6.136,6.137.1.042.1-.042,6.038-6.038.042-.1-.042-.1-6.137-6.136a.142.142,0,0,0-.2.2Zm.1-.556-.1-.1L78.615,287a.143.143,0,0,0,0,.2l6.591,6.591.1.042.1-.042L91.9,287.3l.042-.1-.042-.1-6.591-6.59a.142.142,0,0,0-.2,0l.1.1-.1.1,6.49,6.49-6.291,6.291L78.917,287.1l6.391-6.392-.1-.1-.1.1Z" transform="translate(64.78 -38.686)" fill="#fff"/>
          <path id="Path_378" data-name="Path 378" d="M67.985,281.406l5.766,5.765-5.766,5.765v-11.53m-.321-.777v12.984l.049.049,6.492-6.492Z" transform="translate(69.478 -38.756)" fill="#fff"/>
          <path id="Path_379" data-name="Path 379" d="M67.776,281.4l5.665,5.665-5.422,5.422V281.3a.142.142,0,0,0-.285,0v11.53a.142.142,0,0,0,.243.1l5.765-5.766.042-.1-.042-.1L67.978,281.2a.142.142,0,1,0-.2.2Zm-.22-.877h-.142v12.984l.042.1.05.049a.142.142,0,0,0,.2,0l6.492-6.492.042-.1-.042-.1-6.541-6.542a.142.142,0,0,0-.243.1h.142l-.1.1,6.441,6.441L67.5,293.454l.1.1.1-.1-.007-.007V280.521h-.142l-.1.1Z" transform="translate(69.586 -38.649)" fill="#fff"/>
          <path id="Path_380" data-name="Path 380" d="M107.965,281.338l6.136,6.136-6.037,6.038-6.136-6.136,6.038-6.038m0-.454-6.492,6.492,6.59,6.59,6.493-6.492Z" transform="translate(54.919 -38.866)" fill="#fff"/>
          <path id="Path_381" data-name="Path 381" d="M107.756,281.331l6.035,6.035-5.836,5.837-5.935-5.935,5.937-5.937a.142.142,0,0,0-.2-.2l-6.038,6.038a.142.142,0,0,0,0,.2l6.136,6.135.1.042.1-.042,6.037-6.038a.142.142,0,0,0,0-.2l-6.136-6.136a.142.142,0,0,0-.2.2Zm.1-.555-.1-.1-6.492,6.492a.142.142,0,0,0,0,.2l6.59,6.59.1.042.1-.042,6.492-6.492.042-.1-.042-.1-6.59-6.59a.142.142,0,0,0-.2,0l.1.1-.1.1,6.49,6.489-6.291,6.291-6.389-6.389,6.392-6.391-.1-.1-.1.1Z" transform="translate(55.027 -38.758)" fill="#fff"/>
          <path id="Path_382" data-name="Path 382" d="M85.316,302.66l6.136,6.135-6.038,6.038L79.278,308.7l6.038-6.038m0-.455L78.823,308.7l6.59,6.59,6.493-6.493Z" transform="translate(64.673 -48.048)" fill="#fff"/>
          <path id="Path_383" data-name="Path 383" d="M85.107,302.653l6.035,6.035-5.837,5.837-5.934-5.935,5.936-5.937a.142.142,0,0,0-.2-.2l-6.038,6.037a.143.143,0,0,0,0,.2l6.136,6.136.1.042.1-.042,6.038-6.038.042-.1-.042-.1-6.137-6.135a.142.142,0,0,0-.2.2Zm.1-.556-.1-.1-6.493,6.493a.143.143,0,0,0,0,.2l6.591,6.59.1.042.1-.042,6.493-6.493.042-.1-.042-.1L85.308,302a.143.143,0,0,0-.2,0l.1.1-.1.1,6.49,6.49-6.291,6.292-6.389-6.389,6.391-6.392-.1-.1-.1.1Z" transform="translate(64.78 -47.94)" fill="#fff"/>
          <path id="Path_384" data-name="Path 384" d="M67.985,302.9l5.766,5.765-5.766,5.765V302.9m-.321-.776V315.1l.049.049L74.2,308.66Z" transform="translate(69.478 -48.011)" fill="#fff"/>
          <path id="Path_385" data-name="Path 385" d="M67.776,302.888l5.665,5.665-5.422,5.422V302.787a.142.142,0,0,0-.285,0v11.531a.142.142,0,0,0,.243.1l5.765-5.765.042-.1-.042-.1-5.765-5.765a.142.142,0,0,0-.2.2Zm-.22-.877h-.142V315l.042.1.049.049.1.042.1-.042,6.492-6.492.042-.1-.042-.1-6.541-6.542a.142.142,0,0,0-.243.1h.142l-.1.1,6.441,6.441L67.5,314.944l.1.1.1-.1-.007-.007V302.011h-.142l-.1.1Z" transform="translate(69.586 -47.903)" fill="#fff"/>
          <path id="Path_386" data-name="Path 386" d="M85.316,324.15l6.136,6.136-6.038,6.038-6.136-6.136,6.038-6.038m0-.455-6.493,6.493,6.59,6.59,6.493-6.492Z" transform="translate(64.673 -57.302)" fill="#fff"/>
          <path id="Path_387" data-name="Path 387" d="M85.107,324.143l6.035,6.035-5.837,5.837-5.934-5.935,5.936-5.937a.142.142,0,0,0-.2-.2l-6.038,6.038a.143.143,0,0,0,0,.2l6.136,6.137.1.042.1-.042,6.038-6.038.042-.1-.042-.1-6.137-6.136a.142.142,0,0,0-.2.2Zm.1-.556-.1-.1-6.493,6.492a.143.143,0,0,0,0,.2l6.591,6.591.1.042.1-.042,6.493-6.493.042-.1-.042-.1-6.591-6.59a.141.141,0,0,0-.2,0l.1.1-.1.1,6.49,6.49-6.291,6.291-6.389-6.389,6.391-6.392-.1-.1-.1.1Z" transform="translate(64.78 -57.195)" fill="#fff"/>
          <path id="Path_388" data-name="Path 388" d="M67.985,324.386l5.766,5.765-5.766,5.765v-11.53m-.321-.777v12.984l.049.049L74.2,330.15Z" transform="translate(69.478 -57.265)" fill="#fff"/>
          <path id="Path_389" data-name="Path 389" d="M67.776,324.378l5.665,5.665-5.422,5.422V324.278a.142.142,0,0,0-.285,0v11.53a.142.142,0,0,0,.243.1l5.765-5.766.042-.1-.042-.1-5.765-5.765a.142.142,0,1,0-.2.2Zm-.22-.877h-.142v12.984l.042.1.049.049.1.042.1-.042,6.492-6.493.042-.1-.042-.1L67.657,323.4a.142.142,0,0,0-.243.1h.142l-.1.1,6.441,6.441L67.5,336.435l.1.1.1-.1-.007-.008V323.5h-.142l-.1.1Z" transform="translate(69.586 -57.157)" fill="#fff"/>
          <path id="Path_390" data-name="Path 390" d="M67.958,345.875l5.282,5.765-5.282,5.765V345.875m-.294-.776v12.984l.044.049,5.949-6.492Z" transform="translate(69.478 -66.519)" fill="#fff"/>
          <path id="Path_391" data-name="Path 391" d="M67.745,345.863l5.194,5.669-4.947,5.4V345.767a.142.142,0,0,0-.285,0V357.3a.142.142,0,0,0,.247.1l5.283-5.765a.143.143,0,0,0,0-.192l-5.283-5.765a.142.142,0,0,0-.21.192Zm-.189-.872h-.142v12.984l.037.1.044.049.105.047.105-.046,5.949-6.492a.143.143,0,0,0,0-.192l-5.994-6.542a.142.142,0,0,0-.247.1h.142l-.105.1,5.906,6.445-5.861,6.4.1.1.105-.1-.007-.009V344.991h-.142l-.105.1Z" transform="translate(69.586 -66.411)" fill="#fff"/>
          <path id="Path_392" data-name="Path 392" d="M67.985,367.366l5.766,5.765L67.985,378.9v-11.53m-.321-.777v12.985l.049.049L74.2,373.13Z" transform="translate(69.478 -73.773)" fill="#fff"/>
          <path id="Path_393" data-name="Path 393" d="M67.776,367.358l5.665,5.665-5.422,5.422V367.258a.142.142,0,0,0-.285,0v11.53a.142.142,0,0,0,.243.1l5.765-5.765.042-.1-.042-.1-5.765-5.765a.142.142,0,0,0-.2.2Zm-.22-.877h-.142v12.985l.042.1.049.049.1.042.1-.042,6.492-6.493a.142.142,0,0,0,0-.2l-6.541-6.541a.142.142,0,0,0-.243.1h.142l-.1.1,6.441,6.441L67.5,379.415l.1.1.1-.1-.007-.008V366.481h-.142l-.1.1Z" transform="translate(69.586 -73.666)" fill="#fff"/>
          <path id="Path_394" data-name="Path 394" d="M85.316,259.1l6.136,6.136-6.038,6.038-6.136-6.137,6.038-6.037m0-.455-6.493,6.492,6.59,6.59,6.493-6.492Z" transform="translate(64.673 -29.292)" fill="#fff"/>
          <path id="Path_395" data-name="Path 395" d="M85.107,259.1l6.035,6.035-5.837,5.837-5.934-5.935,5.936-5.937a.142.142,0,0,0-.2-.2l-6.038,6.037a.143.143,0,0,0,0,.2l6.136,6.136.1.042.1-.042,6.038-6.038.042-.1-.042-.1L85.308,258.9a.142.142,0,1,0-.2.2Zm.1-.555-.1-.1-6.493,6.492a.143.143,0,0,0,0,.2l6.591,6.59.1.042.1-.042,6.493-6.492.042-.1-.042-.1-6.591-6.59a.142.142,0,0,0-.2,0l.1.1-.1.1,6.49,6.49-6.291,6.291-6.389-6.389,6.391-6.391-.1-.1-.1.1Z" transform="translate(64.78 -29.184)" fill="#fff"/>
          <path id="Path_396" data-name="Path 396" d="M67.985,259.34l5.766,5.765-5.766,5.766V259.34m-.321-.777v12.984l.049.049L74.2,265.1Z" transform="translate(69.478 -29.254)" fill="#fff"/>
          <path id="Path_397" data-name="Path 397" d="M67.776,259.333,73.441,265l-5.422,5.422V259.232a.142.142,0,1,0-.285,0v11.531a.142.142,0,0,0,.243.1l5.765-5.765.042-.1-.042-.1-5.765-5.765a.143.143,0,0,0-.2.2Zm-.22-.877h-.142V271.44l.042.1.049.049.1.042.1-.042L74.2,265.1l.042-.1-.042-.1-6.541-6.541a.142.142,0,0,0-.243.1h.142l-.1.1L73.9,265,67.5,271.389l.1.1.1-.1-.007-.007V258.456h-.142l-.1.1Z" transform="translate(69.586 -29.147)" fill="#fff"/>
          <path id="Path_398" data-name="Path 398" d="M85.316,237.039l6.136,6.136-6.038,6.038-6.136-6.136,6.038-6.038m0-.455-6.493,6.493,6.59,6.59,6.493-6.492Z" transform="translate(64.673 -19.789)" fill="#fff"/>
          <path id="Path_399" data-name="Path 399" d="M85.107,237.032l6.035,6.035L85.306,248.9l-5.934-5.935,5.936-5.937a.142.142,0,0,0-.2-.2l-6.038,6.037a.143.143,0,0,0,0,.2l6.136,6.136.1.042.1-.042,6.038-6.038.042-.1-.042-.1-6.137-6.136a.142.142,0,0,0-.2.2Zm.1-.556-.1-.1-6.493,6.493a.143.143,0,0,0,0,.2l6.591,6.59.1.042.1-.042,6.493-6.492.042-.1-.042-.1-6.591-6.591-.1-.042-.1.042.1.1-.1.1,6.49,6.49-6.291,6.29-6.389-6.389,6.391-6.392-.1-.1-.1.1Z" transform="translate(64.78 -19.682)" fill="#fff"/>
          <path id="Path_400" data-name="Path 400" d="M67.985,237.274l5.766,5.765L67.985,248.8V237.274m-.321-.776v12.984l.049.049,6.492-6.492Z" transform="translate(69.478 -19.752)" fill="#fff"/>
          <path id="Path_401" data-name="Path 401" d="M67.776,237.267l5.665,5.665-5.422,5.422V237.166a.142.142,0,0,0-.285,0V248.7a.142.142,0,0,0,.243.1l5.765-5.765.042-.1-.042-.1-5.765-5.765a.142.142,0,0,0-.2.2Zm-.22-.877h-.142v12.984l.042.1.049.05.1.042.1-.042,6.492-6.492.042-.1-.042-.1-6.541-6.541a.142.142,0,0,0-.243.1h.142l-.1.1,6.441,6.441L67.5,249.323l.1.1.1-.1-.007-.007V236.39h-.142l-.1.1Z" transform="translate(69.586 -19.645)" fill="#fff"/>
          <path id="Path_402" data-name="Path 402" d="M67.985,215.209l5.766,5.765-5.766,5.765v-11.53m-.321-.777v12.984l.049.05,6.492-6.493Z" transform="translate(69.478 -10.25)" fill="#fff"/>
          <path id="Path_403" data-name="Path 403" d="M67.776,215.2l5.665,5.664-5.422,5.422V215.1a.142.142,0,1,0-.285,0v11.53a.142.142,0,0,0,.243.1l5.765-5.765.042-.1-.042-.1L67.978,215a.143.143,0,0,0-.2.2Zm-.22-.877h-.142v12.984l.042.1.049.05.1.042.1-.042,6.492-6.493.042-.1-.042-.1-6.541-6.542a.142.142,0,0,0-.243.1h.142l-.1.1,6.441,6.441L67.5,227.258l.1.1.1-.1-.007-.007V214.324h-.142l-.1.1Z" transform="translate(69.586 -10.142)" fill="#fff"/>
          <path id="Path_404" data-name="Path 404" d="M67.985,191.115l5.766,5.765-5.766,5.766V191.115m-.321-.777v12.984l.049.049,6.492-6.492Z" transform="translate(69.478 0.126)" fill="#fff"/>
          <path id="Path_405" data-name="Path 405" d="M67.776,191.107l5.665,5.665-5.422,5.422V191.007a.142.142,0,0,0-.285,0v11.531a.142.142,0,0,0,.243.1l5.765-5.765.042-.1-.042-.1-5.765-5.765a.142.142,0,1,0-.2.2Zm-.22-.877h-.142v12.984l.042.1.049.049.1.042.1-.042,6.492-6.492.042-.1-.042-.1-6.541-6.541a.142.142,0,0,0-.243.1h.142l-.1.1,6.441,6.441L67.5,203.164l.1.1.1-.1-.007-.008V190.23h-.142l-.1.1Z" transform="translate(69.586 0.233)" fill="#fff"/>
        </g>
        <g id="Group_38" data-name="Group 38">
          <path id="Path_406" data-name="Path 406" d="M289.979,288.754l-6.136-6.136,6.038-6.038,6.136,6.136-6.038,6.038m0,.454,6.492-6.492-6.59-6.591-6.492,6.493Z" transform="translate(-23.419 -36.817)" fill="#fff"/>
          <path id="Path_407" data-name="Path 407" d="M289.972,288.545l-6.035-6.035,5.837-5.836,5.935,5.935-5.937,5.937a.143.143,0,0,0,.2.2l6.038-6.038.042-.1-.042-.1-6.136-6.136a.142.142,0,0,0-.2,0l-6.038,6.037a.142.142,0,0,0,0,.2l6.136,6.136a.143.143,0,0,0,.2-.2Zm-.1.555.1.1,6.492-6.493.042-.1-.042-.1-6.59-6.59a.142.142,0,0,0-.2,0l-6.492,6.492a.142.142,0,0,0,0,.2l6.59,6.59.1.042.1-.042-.1-.1.1-.1-6.49-6.49,6.291-6.291,6.389,6.389L289.77,289l.1.1.1-.1Z" transform="translate(-23.311 -36.709)" fill="#fff"/>
          <path id="Path_408" data-name="Path 408" d="M312.257,288.556l-5.765-5.765,5.765-5.765v11.53m.322.775V276.348l-.049-.049-6.492,6.492Z" transform="translate(-33.172 -36.891)" fill="#fff"/>
          <path id="Path_409" data-name="Path 409" d="M312.25,288.348l-5.665-5.665,5.422-5.422v11.187a.142.142,0,1,0,.285,0v-11.53a.142.142,0,0,0-.243-.1l-5.765,5.765a.142.142,0,0,0,0,.2l5.765,5.766a.143.143,0,0,0,.2-.2Zm.221.876h.142V276.24l-.042-.1-.05-.049a.142.142,0,0,0-.2,0l-6.493,6.492a.143.143,0,0,0,0,.2l6.542,6.542a.142.142,0,0,0,.243-.1h-.142l.1-.1-6.441-6.441,6.391-6.392-.1-.1-.1.1.007.007v12.925h.142l.1-.1Z" transform="translate(-33.065 -36.784)" fill="#fff"/>
          <path id="Path_410" data-name="Path 410" d="M267.329,288.586l-6.135-6.136,6.038-6.038,6.136,6.135-6.038,6.038m0,.455,6.493-6.493-6.59-6.59-6.492,6.492Z" transform="translate(-13.666 -36.745)" fill="#fff"/>
          <path id="Path_411" data-name="Path 411" d="M267.322,288.378l-6.035-6.035,5.836-5.837,5.934,5.935-5.936,5.937a.142.142,0,0,0,.2.2l6.038-6.038.042-.1-.042-.1-6.136-6.136a.142.142,0,0,0-.2,0l-6.038,6.038a.143.143,0,0,0,0,.2l6.136,6.135a.142.142,0,1,0,.2-.2Zm-.1.556.1.1,6.493-6.493.042-.1-.042-.1-6.591-6.59a.143.143,0,0,0-.2,0l-6.493,6.493a.142.142,0,0,0,0,.2l6.591,6.59.1.042.1-.042-.1-.1.1-.1-6.49-6.49,6.292-6.291,6.389,6.389-6.391,6.392.1.1.1-.1Z" transform="translate(-13.558 -36.637)" fill="#fff"/>
          <path id="Path_412" data-name="Path 412" d="M289.979,267.264l-6.136-6.136,6.038-6.037,6.136,6.136-6.038,6.038m0,.454,6.492-6.492-6.59-6.591-6.492,6.493Z" transform="translate(-23.419 -27.563)" fill="#fff"/>
          <path id="Path_413" data-name="Path 413" d="M289.972,267.056l-6.035-6.036,5.837-5.836,5.935,5.935-5.937,5.937a.142.142,0,0,0,.2.2l6.038-6.038.042-.1-.042-.1-6.136-6.136a.142.142,0,0,0-.2,0l-6.038,6.037a.142.142,0,0,0,0,.2l6.136,6.136a.142.142,0,0,0,.2-.2Zm-.1.555.1.1,6.492-6.492.042-.1-.042-.1-6.59-6.591-.1-.042-.1.042-6.492,6.493a.142.142,0,0,0,0,.2l6.59,6.59.1.042.1-.042-.1-.1.1-.1-6.49-6.49,6.291-6.291,6.389,6.389-6.392,6.391.1.1.1-.1Z" transform="translate(-23.311 -27.455)" fill="#fff"/>
          <path id="Path_414" data-name="Path 414" d="M312.257,267.066l-5.765-5.765,5.765-5.765v11.531m.322.776V254.858l-.049-.05-6.492,6.493Z" transform="translate(-33.172 -27.637)" fill="#fff"/>
          <path id="Path_415" data-name="Path 415" d="M312.25,266.857l-5.665-5.665,5.422-5.422v11.187a.142.142,0,0,0,.285,0V255.427a.142.142,0,0,0-.243-.1l-5.765,5.765a.143.143,0,0,0,0,.2l5.765,5.765a.143.143,0,0,0,.2-.2Zm.221.877h.142V254.75l-.042-.1-.05-.049a.142.142,0,0,0-.2,0l-6.493,6.493a.143.143,0,0,0,0,.2l6.542,6.541a.142.142,0,0,0,.243-.1h-.142l.1-.1-6.441-6.441,6.391-6.392-.1-.1-.1.1.007.007v12.926h.142l.1-.1Z" transform="translate(-33.065 -27.529)" fill="#fff"/>
          <path id="Path_416" data-name="Path 416" d="M289.979,245.774l-6.136-6.136,6.038-6.038,6.136,6.136-6.038,6.038m0,.454,6.492-6.492-6.59-6.59-6.492,6.492Z" transform="translate(-23.419 -18.309)" fill="#fff"/>
          <path id="Path_417" data-name="Path 417" d="M289.972,245.565l-6.035-6.035,5.837-5.836,5.935,5.935-5.937,5.937a.143.143,0,0,0,.2.2l6.038-6.038.042-.1-.042-.1-6.136-6.136a.142.142,0,0,0-.2,0l-6.038,6.037a.142.142,0,0,0,0,.2l6.136,6.136a.143.143,0,0,0,.2-.2Zm-.1.555.1.1,6.492-6.492.042-.1-.042-.1-6.59-6.59a.142.142,0,0,0-.2,0l-6.492,6.492a.142.142,0,0,0,0,.2l6.59,6.59.1.042.1-.042-.1-.1.1-.1-6.49-6.49,6.291-6.291,6.389,6.389-6.392,6.391.1.1.1-.1Z" transform="translate(-23.311 -18.201)" fill="#fff"/>
          <path id="Path_418" data-name="Path 418" d="M312.257,245.576l-5.765-5.765,5.765-5.765v11.531m.322.775V233.367l-.049-.049-6.492,6.493Z" transform="translate(-33.172 -18.383)" fill="#fff"/>
          <path id="Path_419" data-name="Path 419" d="M312.25,245.368l-5.665-5.665,5.422-5.422v11.187a.142.142,0,0,0,.285,0V233.938a.142.142,0,0,0-.243-.1l-5.765,5.765a.142.142,0,0,0,0,.2l5.765,5.766a.143.143,0,0,0,.2-.2Zm.221.876h.142V233.259l-.042-.1-.05-.049a.141.141,0,0,0-.2,0l-6.493,6.492a.143.143,0,0,0,0,.2l6.542,6.541a.142.142,0,0,0,.243-.1h-.142l.1-.1-6.441-6.441,6.391-6.392-.1-.1-.1.1.007.007v12.925h.142l.1-.1Z" transform="translate(-33.065 -18.275)" fill="#fff"/>
          <path id="Path_420" data-name="Path 420" d="M312.7,224.086l-5.283-5.766,5.283-5.765v11.531m.294.776V211.878l-.045-.05L307,218.32Z" transform="translate(-33.586 -9.129)" fill="#fff"/>
          <path id="Path_421" data-name="Path 421" d="M312.7,223.882l-5.194-5.67,4.947-5.4v11.165a.142.142,0,1,0,.285,0V212.447a.142.142,0,0,0-.248-.1l-5.283,5.765a.141.141,0,0,0,0,.192l5.283,5.766a.142.142,0,0,0,.21-.192Zm.19.872h.142V211.77l-.037-.1-.045-.05-.105-.046-.1.046-5.949,6.493a.141.141,0,0,0,0,.192l5.994,6.542a.142.142,0,0,0,.247-.1h-.142l.105-.1-5.906-6.446,5.861-6.4-.105-.1-.1.1.007.009v12.929h.142l.105-.1Z" transform="translate(-33.479 -9.021)" fill="#fff"/>
          <path id="Path_422" data-name="Path 422" d="M312.257,202.6l-5.765-5.765,5.765-5.765V202.6m.322.775V190.387l-.049-.049-6.492,6.493Z" transform="translate(-33.172 -1.874)" fill="#fff"/>
          <path id="Path_423" data-name="Path 423" d="M312.25,202.387l-5.665-5.665,5.422-5.422v11.187a.142.142,0,1,0,.285,0V190.957a.142.142,0,0,0-.243-.1l-5.765,5.765a.142.142,0,0,0,0,.2l5.765,5.766a.143.143,0,0,0,.2-.2Zm.221.876h.142V190.279l-.042-.1-.05-.049a.142.142,0,0,0-.2,0l-6.493,6.493a.143.143,0,0,0,0,.2l6.542,6.542a.142.142,0,0,0,.243-.1h-.142l.1-.1-6.441-6.441,6.391-6.392-.1-.1-.1.1.007.007v12.925h.142l.1-.1Z" transform="translate(-33.065 -1.767)" fill="#fff"/>
          <path id="Path_424" data-name="Path 424" d="M289.979,310.82l-6.136-6.137,6.038-6.037,6.136,6.136-6.038,6.038m0,.454,6.492-6.493-6.59-6.59-6.492,6.492Z" transform="translate(-23.419 -46.319)" fill="#fff"/>
          <path id="Path_425" data-name="Path 425" d="M289.972,310.611l-6.035-6.036,5.837-5.836,5.935,5.935-5.937,5.937a.143.143,0,0,0,.2.2l6.038-6.038.042-.1-.042-.1-6.136-6.136a.142.142,0,0,0-.2,0l-6.038,6.037a.142.142,0,0,0,0,.2l6.136,6.137a.143.143,0,0,0,.2-.2Zm-.1.555.1.1,6.492-6.493.042-.1-.042-.1-6.59-6.59a.143.143,0,0,0-.2,0l-6.492,6.492a.142.142,0,0,0,0,.2l6.59,6.591.1.042.1-.042-.1-.1.1-.1-6.49-6.49,6.291-6.291,6.389,6.389-6.392,6.392.1.1.1-.1Z" transform="translate(-23.311 -46.211)" fill="#fff"/>
          <path id="Path_426" data-name="Path 426" d="M312.257,310.622l-5.765-5.766,5.765-5.765v11.531m.322.775V298.413l-.049-.049-6.492,6.492Z" transform="translate(-33.172 -46.394)" fill="#fff"/>
          <path id="Path_427" data-name="Path 427" d="M312.25,310.413l-5.665-5.665,5.422-5.421v11.187a.142.142,0,1,0,.285,0V298.983a.142.142,0,0,0-.243-.1l-5.765,5.765a.142.142,0,0,0,0,.2l5.765,5.765a.142.142,0,0,0,.2-.2Zm.221.876h.142V298.305l-.042-.1-.05-.05a.142.142,0,0,0-.2,0l-6.493,6.492a.143.143,0,0,0,0,.2l6.542,6.541a.142.142,0,0,0,.243-.1h-.142l.1-.1-6.441-6.441,6.391-6.391-.1-.1-.1.1.007.007V311.29h.142l.1-.1Z" transform="translate(-33.065 -46.286)" fill="#fff"/>
          <path id="Path_428" data-name="Path 428" d="M289.979,332.885l-6.136-6.137,6.038-6.038,6.136,6.136-6.038,6.038m0,.454,6.492-6.492-6.59-6.591-6.492,6.493Z" transform="translate(-23.419 -55.821)" fill="#fff"/>
          <path id="Path_429" data-name="Path 429" d="M289.972,332.677l-6.035-6.036,5.837-5.836,5.935,5.935-5.937,5.937a.142.142,0,0,0,.2.2l6.038-6.038.042-.1-.042-.1-6.136-6.136a.143.143,0,0,0-.2,0l-6.038,6.038a.142.142,0,0,0,0,.2l6.136,6.136a.142.142,0,0,0,.2-.2Zm-.1.555.1.1,6.492-6.493.042-.1-.042-.1-6.59-6.59a.142.142,0,0,0-.2,0l-6.492,6.492a.142.142,0,0,0,0,.2l6.59,6.59.1.042.1-.042-.1-.1.1-.1-6.49-6.49,6.291-6.291,6.389,6.389-6.392,6.392.1.1.1-.1Z" transform="translate(-23.311 -55.714)" fill="#fff"/>
          <path id="Path_430" data-name="Path 430" d="M312.257,332.687l-5.765-5.765,5.765-5.765v11.53m.322.776V320.479l-.049-.05-6.492,6.493Z" transform="translate(-33.172 -55.895)" fill="#fff"/>
          <path id="Path_431" data-name="Path 431" d="M312.25,332.479l-5.665-5.665,5.422-5.422v11.187a.142.142,0,0,0,.285,0v-11.53a.142.142,0,0,0-.243-.1l-5.765,5.765a.142.142,0,0,0,0,.2l5.765,5.766a.143.143,0,0,0,.2-.2Zm.221.877h.142V320.371l-.042-.1-.05-.049a.143.143,0,0,0-.2,0l-6.493,6.493a.143.143,0,0,0,0,.2l6.542,6.542a.142.142,0,0,0,.243-.1h-.142l.1-.1-6.441-6.441,6.391-6.392-.1-.1-.1.1.007.008v12.925h.142l.1-.1Z" transform="translate(-33.065 -55.788)" fill="#fff"/>
          <path id="Path_432" data-name="Path 432" d="M312.257,354.752l-5.765-5.765,5.765-5.765v11.53m.322.776V342.544l-.049-.049-6.492,6.492Z" transform="translate(-33.172 -65.398)" fill="#fff"/>
          <path id="Path_433" data-name="Path 433" d="M312.25,354.544l-5.665-5.665,5.422-5.422v11.187a.142.142,0,0,0,.285,0v-11.53a.142.142,0,0,0-.243-.1l-5.765,5.765a.142.142,0,0,0,0,.2l5.765,5.765a.142.142,0,0,0,.2-.2Zm.221.876h.142V342.436l-.042-.1-.05-.05a.142.142,0,0,0-.2,0l-6.493,6.492a.143.143,0,0,0,0,.2l6.542,6.542a.142.142,0,0,0,.243-.1h-.142l.1-.1-6.441-6.441,6.391-6.392-.1-.1-.1.1.007.007v12.925h.142l.1-.1Z" transform="translate(-33.065 -65.29)" fill="#fff"/>
          <path id="Path_434" data-name="Path 434" d="M312.257,378.846l-5.765-5.765,5.765-5.765v11.53m.322.777V366.638l-.049-.049-6.492,6.492Z" transform="translate(-33.172 -75.773)" fill="#fff"/>
          <path id="Path_435" data-name="Path 435" d="M312.25,378.638l-5.665-5.665,5.422-5.421v11.186a.142.142,0,1,0,.285,0v-11.53a.142.142,0,0,0-.243-.1l-5.765,5.765a.143.143,0,0,0,0,.2l5.765,5.765a.142.142,0,1,0,.2-.2Zm.221.877h.142V366.53l-.042-.1-.05-.049a.141.141,0,0,0-.2,0l-6.493,6.492a.143.143,0,0,0,0,.2l6.542,6.542a.142.142,0,0,0,.243-.1h-.142l.1-.1-6.441-6.442,6.391-6.391-.1-.1-.1.1.007.007v12.926h.142l.1-.1Z" transform="translate(-33.065 -75.666)" fill="#fff"/>
        </g>
      </g>
    </g>
  </g>
</svg>
